<svg width="31" height="31" viewBox="0 0 31 31" fill="none" xmlns="http://www.w3.org/2000/svg">
<path d="M15.5 0C6.95302 0 0 6.95302 0 15.5C0 24.047 6.95302 31 15.5 31C24.047 31 31 24.047 31 15.5C31 6.95302 24.047 0 15.5 0ZM20.2882 16.4132L13.8299 22.8715C13.578 23.1234 13.2474 23.25 12.9166 23.25C12.586 23.25 12.2553 23.1234 12.0034 22.8715C11.4984 22.3665 11.4984 21.5501 12.0034 21.0451L17.5486 15.5L12.0035 9.95487C11.4985 9.44985 11.4985 8.6335 12.0035 8.12848C12.5085 7.62346 13.3249 7.62346 13.8299 8.12848L20.2882 14.5868C20.7933 15.0919 20.7933 15.9081 20.2882 16.4132Z" fill="white"/>
</svg>
